<svg width="267" height="74" viewBox="0 0 267 74" fill="none" xmlns="http://www.w3.org/2000/svg">
<path d="M55 35.268C56.3333 36.0378 56.3333 37.9622 55 38.7321L17.5 60.3827C16.1667 61.1525 14.5 60.1902 14.5 58.6506V15.3494C14.5 13.8098 16.1667 12.8475 17.5 13.6173L55 35.268Z" fill="#FFB800" fill-opacity="0.57"/>
<path d="M69 27.268C70.3333 28.0378 70.3333 29.9622 69 30.7321L31.5 52.3827C30.1667 53.1525 28.5 52.1902 28.5 50.6506V7.34936C28.5 5.80976 30.1667 4.84751 31.5 5.61731L69 27.268Z" fill="#FF0000" fill-opacity="0.57"/>
<path d="M69 43.268C70.3333 44.0378 70.3333 45.9622 69 46.7321L31.5 68.3827C30.1667 69.1525 28.5 68.1902 28.5 66.6506V23.3494C28.5 21.8098 30.1667 20.8475 31.5 21.6173L69 43.268Z" fill="#0038FF" fill-opacity="0.57"/>
<path d="M99.464 49V26.6H113.8V30.568H103.656V35.336H111.528V39.304H103.656V45.032H114.12V49H99.464ZM120.5 49.32C119.646 49.32 118.868 49.1333 118.164 48.76C117.46 48.376 116.9 47.8267 116.484 47.112C116.068 46.3973 115.86 45.5333 115.86 44.52C115.86 43.6133 116.068 42.84 116.484 42.2C116.91 41.5493 117.465 41.0107 118.148 40.584C118.841 40.1467 119.588 39.8053 120.388 39.56C121.198 39.304 121.993 39.1173 122.772 39C123.561 38.8827 124.254 38.8133 124.852 38.792C124.809 37.8747 124.574 37.208 124.148 36.792C123.721 36.376 122.996 36.168 121.972 36.168C121.257 36.168 120.558 36.2693 119.876 36.472C119.204 36.664 118.441 36.968 117.588 37.384L117.236 34.152C118.196 33.6827 119.156 33.3307 120.116 33.096C121.086 32.8613 122.068 32.744 123.06 32.744C124.254 32.744 125.284 32.9573 126.148 33.384C127.012 33.8107 127.678 34.4987 128.148 35.448C128.617 36.3867 128.852 37.6293 128.852 39.176V43.496C128.852 44.296 128.889 44.8773 128.964 45.24C129.038 45.592 129.177 45.816 129.38 45.912C129.582 46.008 129.876 46.056 130.26 46.056H130.772L130.42 49.32H128.98C128.382 49.32 127.849 49.24 127.38 49.08C126.921 48.9307 126.526 48.7173 126.196 48.44C125.865 48.1627 125.598 47.8373 125.396 47.464C124.873 48.0507 124.164 48.5093 123.267 48.84C122.382 49.16 121.46 49.32 120.5 49.32ZM122.164 46.28C122.516 46.28 122.953 46.1893 123.476 46.008C123.998 45.816 124.468 45.5227 124.884 45.128V41.48C124.137 41.512 123.39 41.6347 122.644 41.848C121.897 42.0613 121.273 42.376 120.772 42.792C120.27 43.208 120.02 43.7307 120.02 44.36C120.02 45.0107 120.19 45.496 120.532 45.816C120.873 46.1253 121.417 46.28 122.164 46.28ZM137.525 49.32C136.469 49.32 135.514 49.2187 134.661 49.016C133.818 48.8133 132.97 48.52 132.117 48.136L132.469 44.744C133.29 45.224 134.096 45.6133 134.885 45.912C135.685 46.2 136.522 46.344 137.397 46.344C138.186 46.344 138.789 46.216 139.205 45.96C139.621 45.704 139.829 45.2987 139.829 44.744C139.829 44.328 139.717 43.9867 139.493 43.72C139.28 43.4533 138.954 43.2133 138.517 43C138.08 42.7867 137.536 42.5573 136.885 42.312C135.904 41.9493 135.066 41.5547 134.373 41.128C133.69 40.7013 133.168 40.1893 132.805 39.592C132.453 38.984 132.277 38.2373 132.277 37.352C132.277 36.4347 132.517 35.624 132.997 34.92C133.477 34.216 134.16 33.6667 135.045 33.272C135.93 32.8773 136.981 32.68 138.197 32.68C139.21 32.68 140.117 32.792 140.917 33.016C141.728 33.24 142.474 33.544 143.157 33.928L142.805 37.32C142.09 36.8187 141.37 36.408 140.645 36.088C139.92 35.7573 139.125 35.592 138.261 35.592C137.578 35.592 137.05 35.7307 136.677 36.008C136.304 36.2853 136.117 36.68 136.117 37.192C136.117 37.8107 136.378 38.2747 136.901 38.584C137.424 38.8933 138.261 39.272 139.413 39.72C140.16 40.008 140.805 40.3067 141.349 40.616C141.904 40.9253 142.362 41.2667 142.725 41.64C143.088 42.0133 143.354 42.44 143.525 42.92C143.706 43.3893 143.797 43.9333 143.797 44.552C143.797 45.5653 143.552 46.4293 143.061 47.144C142.581 47.848 141.872 48.3867 140.933 48.76C140.005 49.1333 138.869 49.32 137.525 49.32ZM147.792 56.744L151.344 47.944L144.688 33H149.104L153.2 43.304L157.36 33H161.776L151.76 56.744H147.792ZM175.188 43.688H165.812V40.104H175.188V43.688ZM169.972 30.6H171.028L164.564 49H160.596L168.564 26.6H172.436L180.404 49H176.436L169.972 30.6ZM186.9 49.32C185.844 49.32 184.889 49.2187 184.036 49.016C183.193 48.8133 182.345 48.52 181.492 48.136L181.844 44.744C182.665 45.224 183.471 45.6133 184.26 45.912C185.06 46.2 185.897 46.344 186.772 46.344C187.561 46.344 188.164 46.216 188.58 45.96C188.996 45.704 189.204 45.2987 189.204 44.744C189.204 44.328 189.092 43.9867 188.868 43.72C188.655 43.4533 188.329 43.2133 187.892 43C187.455 42.7867 186.911 42.5573 186.26 42.312C185.279 41.9493 184.441 41.5547 183.748 41.128C183.065 40.7013 182.543 40.1893 182.18 39.592C181.828 38.984 181.652 38.2373 181.652 37.352C181.652 36.4347 181.892 35.624 182.372 34.92C182.852 34.216 183.535 33.6667 184.42 33.272C185.305 32.8773 186.356 32.68 187.572 32.68C188.585 32.68 189.492 32.792 190.292 33.016C191.103 33.24 191.849 33.544 192.532 33.928L192.18 37.32C191.465 36.8187 190.745 36.408 190.02 36.088C189.295 35.7573 188.5 35.592 187.636 35.592C186.953 35.592 186.425 35.7307 186.052 36.008C185.679 36.2853 185.492 36.68 185.492 37.192C185.492 37.8107 185.753 38.2747 186.276 38.584C186.799 38.8933 187.636 39.272 188.788 39.72C189.535 40.008 190.18 40.3067 190.724 40.616C191.279 40.9253 191.737 41.2667 192.1 41.64C192.463 42.0133 192.729 42.44 192.9 42.92C193.081 43.3893 193.172 43.9333 193.172 44.552C193.172 45.5653 192.927 46.4293 192.436 47.144C191.956 47.848 191.247 48.3867 190.308 48.76C189.38 49.1333 188.244 49.32 186.9 49.32ZM200.431 49.32C199.375 49.32 198.421 49.2187 197.567 49.016C196.725 48.8133 195.877 48.52 195.023 48.136L195.375 44.744C196.197 45.224 197.002 45.6133 197.791 45.912C198.591 46.2 199.429 46.344 200.303 46.344C201.093 46.344 201.695 46.216 202.111 45.96C202.527 45.704 202.735 45.2987 202.735 44.744C202.735 44.328 202.623 43.9867 202.399 43.72C202.186 43.4533 201.861 43.2133 201.423 43C200.986 42.7867 200.442 42.5573 199.791 42.312C198.81 41.9493 197.973 41.5547 197.279 41.128C196.597 40.7013 196.074 40.1893 195.711 39.592C195.359 38.984 195.183 38.2373 195.183 37.352C195.183 36.4347 195.423 35.624 195.903 34.92C196.383 34.216 197.066 33.6667 197.951 33.272C198.837 32.8773 199.887 32.68 201.103 32.68C202.117 32.68 203.023 32.792 203.823 33.016C204.634 33.24 205.381 33.544 206.063 33.928L205.711 37.32C204.997 36.8187 204.277 36.408 203.551 36.088C202.826 35.7573 202.031 35.592 201.167 35.592C200.485 35.592 199.957 35.7307 199.583 36.008C199.21 36.2853 199.023 36.68 199.023 37.192C199.023 37.8107 199.285 38.2747 199.807 38.584C200.33 38.8933 201.167 39.272 202.319 39.72C203.066 40.008 203.711 40.3067 204.255 40.616C204.81 40.9253 205.269 41.2667 205.631 41.64C205.994 42.0133 206.261 42.44 206.431 42.92C206.613 43.3893 206.703 43.9333 206.703 44.552C206.703 45.5653 206.458 46.4293 205.967 47.144C205.487 47.848 204.778 48.3867 203.839 48.76C202.911 49.1333 201.775 49.32 200.431 49.32ZM209.419 49V33H213.387V49H209.419ZM209.419 30.568V26.6H213.387V30.568H209.419ZM223.442 57.064C221.949 57.064 220.642 56.8773 219.522 56.504C218.413 56.1413 217.549 55.6187 216.93 54.936C216.322 54.2533 216.018 53.4373 216.018 52.488C216.018 51.688 216.237 50.9733 216.674 50.344C217.122 49.7253 217.767 49.1813 218.61 48.712C218.183 48.456 217.842 48.136 217.586 47.752C217.33 47.368 217.202 46.9307 217.202 46.44C217.202 45.928 217.346 45.4853 217.634 45.112C217.933 44.728 218.322 44.424 218.802 44.2C217.991 43.624 217.378 42.888 216.962 41.992C216.546 41.0853 216.338 40.104 216.338 39.048C216.338 37.896 216.589 36.84 217.09 35.88C217.591 34.9093 218.322 34.136 219.282 33.56C220.253 32.9733 221.437 32.68 222.834 32.68C223.559 32.68 224.226 32.7707 224.834 32.952C225.453 33.1333 226.002 33.384 226.482 33.704C226.802 33.5227 227.266 33.3627 227.874 33.224C228.482 33.0747 229.159 33 229.906 33C230.087 33 230.258 33 230.418 33C230.589 33 230.759 33 230.93 33L230.674 35.496C230.439 35.496 230.199 35.496 229.954 35.496C229.719 35.496 229.479 35.496 229.234 35.496C229.138 35.496 229.01 35.496 228.85 35.496C228.69 35.496 228.519 35.5067 228.338 35.528C228.658 36.0187 228.898 36.568 229.058 37.176C229.218 37.784 229.298 38.408 229.298 39.048C229.298 40.2 229.047 41.2613 228.546 42.232C228.055 43.192 227.33 43.9653 226.37 44.552C225.41 45.128 224.231 45.416 222.834 45.416C222.535 45.416 222.247 45.3947 221.97 45.352C221.693 45.3093 221.415 45.256 221.138 45.192C220.903 45.288 220.786 45.4587 220.786 45.704C220.786 45.992 220.962 46.2107 221.314 46.36C221.666 46.5093 222.215 46.6427 222.962 46.76L225.714 47.112C227.431 47.336 228.775 47.8213 229.746 48.568C230.727 49.3147 231.218 50.376 231.218 51.752C231.218 52.8187 230.909 53.7467 230.29 54.536C229.682 55.336 228.797 55.9547 227.634 56.392C226.471 56.84 225.074 57.064 223.442 57.064ZM223.602 54.056C224.946 54.056 225.965 53.8907 226.658 53.56C227.351 53.2293 227.698 52.7227 227.698 52.04C227.698 51.432 227.453 50.984 226.962 50.696C226.482 50.408 225.714 50.184 224.658 50.024L221.154 49.512C220.631 49.7147 220.194 49.992 219.842 50.344C219.49 50.7067 219.314 51.176 219.314 51.752C219.314 52.5307 219.693 53.1067 220.45 53.48C221.207 53.864 222.258 54.056 223.602 54.056ZM222.834 42.472C223.783 42.472 224.498 42.1627 224.978 41.544C225.469 40.9147 225.714 40.0827 225.714 39.048C225.714 38.0027 225.469 37.1707 224.978 36.552C224.498 35.9333 223.783 35.624 222.834 35.624C221.874 35.624 221.149 35.9333 220.658 36.552C220.167 37.1707 219.922 38.0027 219.922 39.048C219.922 40.0827 220.167 40.9147 220.658 41.544C221.149 42.1627 221.874 42.472 222.834 42.472ZM233.137 49V33H236.849L237.009 35.976L236.081 34.76C236.689 34.248 237.415 33.784 238.257 33.368C239.1 32.952 240.081 32.744 241.201 32.744C243.249 32.744 244.769 33.4267 245.761 34.792C246.753 36.1467 247.249 37.9067 247.249 40.072V49H243.281V40.392C243.281 38.8987 243.031 37.7947 242.529 37.08C242.039 36.3653 241.233 36.008 240.113 36.008C239.207 36.008 238.465 36.232 237.889 36.68C237.313 37.1173 236.807 37.704 236.369 38.44L237.105 36.488V49H233.137Z" fill="#1F2326"/>
</svg>
